<svg xmlns="http://www.w3.org/2000/svg" viewBox="0 0 1200 360" role="img" aria-labelledby="title desc">
  <title id="title">Cognis Analytics</title>
  <desc id="desc">Privacy-conscious insights illustrated with charts, trends, and data points</desc>
  <defs>
    <linearGradient id="bg" x1="30" y1="20" x2="1160" y2="350" gradientUnits="userSpaceOnUse"><stop stop-color="#0f2942"/><stop offset=".55" stop-color="#172554"/><stop offset="1" stop-color="#312e81"/></linearGradient>
    <linearGradient id="trend" x1="690" y1="260" x2="1110" y2="75" gradientUnits="userSpaceOnUse"><stop stop-color="#22d3ee"/><stop offset="1" stop-color="#a5b4fc"/></linearGradient>
    <radialGradient id="halo"><stop stop-color="#22d3ee" stop-opacity=".22"/><stop offset="1" stop-color="#22d3ee" stop-opacity="0"/></radialGradient>
    <filter id="shadow" x="-20%" y="-20%" width="140%" height="150%"><feDropShadow dx="0" dy="12" stdDeviation="16" flood-color="#020617" flood-opacity=".35"/></filter>
  </defs>
  <rect width="1200" height="360" rx="28" fill="url(#bg)"/>
  <circle cx="1015" cy="90" r="235" fill="url(#halo)"/>
  <g opacity=".1" stroke="#e0f2fe"><path d="M0 72h1200M0 144h1200M0 216h1200M0 288h1200"/><path d="M120 0v360M240 0v360M360 0v360M480 0v360M600 0v360M720 0v360M840 0v360M960 0v360M1080 0v360"/></g>
  <g font-family="system-ui, sans-serif" fill="#f8fafc">
    <text x="72" y="145" font-size="28" font-weight="600" letter-spacing="5" fill="#67e8f9">COGNIS</text>
    <text x="70" y="220" font-size="72" font-weight="750">Analytics</text>
    <text x="74" y="270" font-size="23" fill="#cbd5e1">See the signal. Respect the person.</text>
  </g>
  <g filter="url(#shadow)">
    <rect x="650" y="48" width="475" height="264" rx="22" fill="#0f172a" fill-opacity=".72" stroke="#c7d2fe" stroke-opacity=".2"/>
    <g fill="#cbd5e1" font-family="system-ui, sans-serif" font-size="14"><text x="681" y="83">ACTIVITY</text><text x="1057" y="83" fill="#67e8f9">+18.4%</text></g>
    <g stroke="#94a3b8" stroke-opacity=".18"><path d="M682 117h412M682 168h412M682 219h412M682 270h412"/></g>
    <path d="M682 251c47-8 65-48 107-44 44 4 57 28 94 5 43-26 58-80 103-72 39 6 48-45 106-58" fill="none" stroke="url(#trend)" stroke-width="6" stroke-linecap="round"/>
    <path d="M682 251c47-8 65-48 107-44 44 4 57 28 94 5 43-26 58-80 103-72 39 6 48-45 106-58v188H682Z" fill="url(#trend)" opacity=".1"/>
    <g fill="#f8fafc" stroke="#22d3ee" stroke-width="3"><circle cx="682" cy="251" r="5"/><circle cx="789" cy="207" r="5"/><circle cx="883" cy="212" r="5"/><circle cx="986" cy="140" r="5"/><circle cx="1092" cy="82" r="5"/></g>
  </g>
</svg>
